<?xml version="1.0" encoding="utf-8"?>
<!-- Generator: Adobe Illustrator 22.1.0, SVG Export Plug-In . SVG Version: 6.00 Build 0)  -->
<svg version="1.1" id="Provinces" xmlns="http://www.w3.org/2000/svg" xmlns:xlink="http://www.w3.org/1999/xlink" x="0px" y="0px"
	 viewBox="0 0 900 500" style="enable-background:new 0 0 900 500;" xml:space="preserve">
<style type="text/css">
	.st0{opacity:0.75;fill:#F49A9A;stroke:#1E1E1E;stroke-width:0.5;}
	.st1{opacity:0.75;fill:#F9A0D5;stroke:#1E1E1E;stroke-width:0.5;}
	.st2{opacity:0.75;fill:#F9F573;stroke:#1E1E1E;stroke-width:0.5;}
	.st3{opacity:0.75;fill:#FC442B;stroke:#1E1E1E;stroke-width:0.5;}
	.st4{opacity:0.75;fill:#F4CBCB;stroke:#1E1E1E;stroke-width:0.5;}
	.st5{opacity:0.75;fill:#E199FF;stroke:#1E1E1E;stroke-width:0.5;}
	.st6{opacity:0.75;fill:#F9832B;stroke:#1E1E1E;stroke-width:0.5;}
	.st7{opacity:0.75;fill:#F7669A;stroke:#1E1E1E;stroke-width:0.5;}
	.st8{opacity:0.75;fill:#62A7F9;stroke:#1E1E1E;stroke-width:0.5;}
	.st9{opacity:0.75;fill:#C9ADA9;stroke:#1E1E1E;stroke-width:0.5;}
	.st10{opacity:0.75;fill:#FCCA29;stroke:#1E1E1E;stroke-width:0.5;}
</style>
<g id="NB">
	<polygon class="st0" points="757.6,337.6 768.1,343.7 768.1,355.9 757.6,362 747,355.9 747,343.7 	"/>
	<polygon class="st0" points="736.5,374.2 747,380.3 747,392.5 736.5,398.6 725.9,392.5 725.9,380.3 	"/>
	<polygon class="st0" points="747,355.9 757.6,362 757.6,374.2 747,380.3 736.4,374.2 736.4,362 	"/>
	<polygon class="st0" points="736.5,337.6 747,343.7 747,355.9 736.5,362 725.9,355.9 725.9,343.7 	"/>
	<polygon class="st0" points="715.3,374.2 725.9,380.3 725.9,392.5 715.3,398.6 704.8,392.5 704.8,380.3 	"/>
	<polygon class="st0" points="725.9,355.9 736.5,362 736.5,374.2 725.9,380.3 715.3,374.2 715.3,362 	"/>
	<polygon class="st0" points="694.2,374.2 704.8,380.3 704.8,392.5 694.2,398.6 683.7,392.5 683.7,380.3 	"/>
	<polygon class="st0" points="704.8,355.9 715.4,362 715.4,374.2 704.8,380.3 694.2,374.2 694.2,362 	"/>
	<polygon class="st0" points="673.1,374.2 683.7,380.3 683.7,392.5 673.1,398.6 662.6,392.5 662.6,380.3 	"/>
	<polygon class="st0" points="683.7,355.9 694.2,362 694.2,374.2 683.7,380.3 673.1,374.2 673.1,362 	"/>
</g>
<g id="NL">
	<polygon class="st1" points="778.7,264.3 789.3,270.4 789.3,282.6 778.7,288.7 768.1,282.6 768.1,270.4 	"/>
	<polygon class="st1" points="768.1,282.6 778.7,288.7 778.7,300.9 768.1,307 757.6,300.9 757.6,288.7 	"/>
	<polygon class="st1" points="757.6,264.3 768.1,270.4 768.1,282.6 757.6,288.7 747,282.6 747,270.4 	"/>
	<polygon class="st1" points="768.1,246 778.7,252.1 778.7,264.3 768.1,270.4 757.6,264.3 757.6,252.1 	"/>
	<polygon class="st1" points="747,282.6 757.6,288.7 757.6,300.9 747,307 736.4,300.9 736.4,288.7 	"/>
	<polygon class="st1" points="736.5,264.3 747,270.4 747,282.6 736.5,288.7 725.9,282.6 725.9,270.4 	"/>
	<polygon class="st1" points="747,246 757.6,252.1 757.6,264.3 747,270.4 736.4,264.3 736.4,252.1 	"/>
	<polygon class="st1" points="736.5,227.7 747,233.8 747,246 736.5,252.1 725.9,246 725.9,233.8 	"/>
	<polygon class="st1" points="725.9,246 736.5,252.1 736.5,264.3 725.9,270.4 715.3,264.3 715.3,252.1 	"/>
	<polygon class="st1" points="715.3,227.7 725.9,233.8 725.9,246 715.3,252.1 704.8,246 704.8,233.8 	"/>
	<polygon class="st1" points="694.2,264.3 704.8,270.4 704.8,282.6 694.2,288.7 683.7,282.6 683.7,270.4 	"/>
	<polygon class="st1" points="704.8,246 715.4,252.1 715.4,264.3 704.8,270.4 694.2,264.3 694.2,252.1 	"/>
	<polygon class="st1" points="694.2,227.7 704.8,233.8 704.8,246 694.2,252.1 683.7,246 683.7,233.8 	"/>
	<polygon class="st1" points="704.8,209.4 715.4,215.5 715.4,227.7 704.8,233.8 694.2,227.7 694.2,215.5 	"/>
	<polygon class="st1" points="673.1,264.3 683.7,270.4 683.7,282.6 673.1,288.7 662.6,282.6 662.6,270.4 	"/>
	<polygon class="st1" points="683.7,246 694.2,252.1 694.2,264.3 683.7,270.4 673.1,264.3 673.1,252.1 	"/>
	<polygon class="st1" points="673.1,227.7 683.7,233.8 683.7,246 673.1,252.1 662.6,246 662.6,233.8 	"/>
	<polygon class="st1" points="683.7,209.4 694.2,215.5 694.2,227.7 683.7,233.8 673.1,227.7 673.1,215.5 	"/>
	<polygon class="st1" points="662.6,246 673.1,252.1 673.1,264.3 662.6,270.4 652,264.3 652,252.1 	"/>
	<polygon class="st1" points="652,227.7 662.6,233.8 662.6,246 652,252.1 641.4,246 641.4,233.8 	"/>
	<polygon class="st1" points="662.6,209.4 673.1,215.5 673.1,227.7 662.6,233.8 652,227.7 652,215.5 	"/>
	<polygon class="st1" points="652,191.1 662.6,197.2 662.6,209.4 652,215.5 641.4,209.4 641.4,197.2 	"/>
	<polygon class="st1" points="641.5,209.4 652,215.5 652,227.7 641.5,233.8 630.9,227.7 630.9,215.5 	"/>
	<polygon class="st1" points="630.9,191.1 641.5,197.2 641.5,209.4 630.9,215.5 620.3,209.4 620.3,197.2 	"/>
</g>
<g id="QC">
	<polygon class="st2" points="567.6,227.7 578.1,233.8 578.1,246 567.6,252.1 557,246 557,233.8 	"/>
	<polygon class="st2" points="715.3,300.9 725.9,307 725.9,319.3 715.3,325.4 704.8,319.3 704.8,307 	"/>
	<polygon class="st2" points="725.9,282.6 736.5,288.7 736.5,300.9 725.9,307 715.3,300.9 715.3,288.7 	"/>
	<polygon class="st2" points="715.3,264.3 725.9,270.4 725.9,282.6 715.3,288.7 704.8,282.6 704.8,270.4 	"/>
	<polygon class="st2" points="694.2,300.9 704.8,307 704.8,319.3 694.2,325.4 683.7,319.3 683.7,307 	"/>
	<polygon class="st2" points="704.8,282.6 715.4,288.7 715.4,300.9 704.8,307 694.2,300.9 694.2,288.7 	"/>
	<polygon class="st2" points="673.1,337.6 683.7,343.7 683.7,355.9 673.1,362 662.6,355.9 662.6,343.7 	"/>
	<polygon class="st2" points="683.7,319.3 694.2,325.4 694.2,337.6 683.7,343.7 673.1,337.6 673.1,325.4 	"/>
	<polygon class="st2" points="673.1,300.9 683.7,307 683.7,319.3 673.1,325.4 662.6,319.3 662.6,307 	"/>
	<polygon class="st2" points="683.7,282.6 694.2,288.7 694.2,300.9 683.7,307 673.1,300.9 673.1,288.7 	"/>
	<polygon class="st2" points="662.6,392.5 673.1,398.6 673.1,410.8 662.6,416.9 652,410.8 652,398.6 	"/>
	<polygon class="st2" points="652,374.2 662.6,380.3 662.6,392.5 652,398.6 641.4,392.5 641.4,380.3 	"/>
	<polygon class="st2" points="662.6,355.9 673.1,362 673.1,374.2 662.6,380.3 652,374.2 652,362 	"/>
	<polygon class="st2" points="652,337.6 662.6,343.7 662.6,355.9 652,362 641.4,355.9 641.4,343.7 	"/>
	<polygon class="st2" points="662.6,319.3 673.1,325.4 673.1,337.6 662.6,343.7 652,337.6 652,325.4 	"/>
	<polygon class="st2" points="652,300.9 662.6,307 662.6,319.3 652,325.4 641.4,319.3 641.4,307 	"/>
	<polygon class="st2" points="662.6,282.6 673.1,288.7 673.1,300.9 662.6,307 652,300.9 652,288.7 	"/>
	<polygon class="st2" points="652,264.3 662.6,270.4 662.6,282.6 652,288.7 641.4,282.6 641.4,270.4 	"/>
	<polygon class="st2" points="630.9,410.8 641.5,416.9 641.5,429.1 630.9,435.2 620.3,429.1 620.3,416.9 	"/>
	<polygon class="st2" points="641.5,392.5 652,398.6 652,410.8 641.5,416.9 630.9,410.8 630.9,398.6 	"/>
	<polygon class="st2" points="630.9,374.2 641.5,380.3 641.5,392.5 630.9,398.6 620.3,392.5 620.3,380.3 	"/>
	<polygon class="st2" points="641.5,355.9 652,362 652,374.2 641.5,380.3 630.9,374.2 630.9,362 	"/>
	<polygon class="st2" points="630.9,337.6 641.5,343.7 641.5,355.9 630.9,362 620.3,355.9 620.3,343.7 	"/>
	<polygon class="st2" points="641.5,319.3 652,325.4 652,337.6 641.5,343.7 630.9,337.6 630.9,325.4 	"/>
	<polygon class="st2" points="630.9,300.9 641.5,307 641.5,319.3 630.9,325.4 620.3,319.3 620.3,307 	"/>
	<polygon class="st2" points="641.5,282.6 652,288.7 652,300.9 641.5,307 630.9,300.9 630.9,288.7 	"/>
	<polygon class="st2" points="630.9,264.3 641.5,270.4 641.5,282.6 630.9,288.7 620.3,282.6 620.3,270.4 	"/>
	<polygon class="st2" points="641.5,246 652,252.1 652,264.3 641.5,270.4 630.9,264.3 630.9,252.1 	"/>
	<polygon class="st2" points="630.9,227.7 641.5,233.8 641.5,246 630.9,252.1 620.3,246 620.3,233.8 	"/>
	<polygon class="st2" points="609.8,410.8 620.4,416.9 620.4,429.1 609.8,435.2 599.2,429.1 599.2,416.9 	"/>
	<polygon class="st2" points="620.3,392.5 630.9,398.6 630.9,410.8 620.3,416.9 609.8,410.8 609.8,398.6 	"/>
	<polygon class="st2" points="609.8,374.2 620.4,380.3 620.4,392.5 609.8,398.6 599.2,392.5 599.2,380.3 	"/>
	<polygon class="st2" points="620.3,355.9 630.9,362 630.9,374.2 620.3,380.3 609.8,374.2 609.8,362 	"/>
	<polygon class="st2" points="609.8,337.6 620.4,343.7 620.4,355.9 609.8,362 599.2,355.9 599.2,343.7 	"/>
	<polygon class="st2" points="620.3,319.3 630.9,325.4 630.9,337.6 620.3,343.7 609.8,337.6 609.8,325.4 	"/>
	<polygon class="st2" points="609.8,300.9 620.4,307 620.4,319.3 609.8,325.4 599.2,319.3 599.2,307 	"/>
	<polygon class="st2" points="620.3,282.6 630.9,288.7 630.9,300.9 620.3,307 609.8,300.9 609.8,288.7 	"/>
	<polygon class="st2" points="609.8,264.3 620.4,270.4 620.4,282.6 609.8,288.7 599.2,282.6 599.2,270.4 	"/>
	<polygon class="st2" points="620.3,246 630.9,252.1 630.9,264.3 620.3,270.4 609.8,264.3 609.8,252.1 	"/>
	<polygon class="st2" points="609.8,227.7 620.4,233.8 620.4,246 609.8,252.1 599.2,246 599.2,233.8 	"/>
	<polygon class="st2" points="620.3,209.4 630.9,215.5 630.9,227.7 620.3,233.8 609.8,227.7 609.8,215.5 	"/>
	<polygon class="st2" points="599.2,392.5 609.8,398.6 609.8,410.8 599.2,416.9 588.7,410.8 588.7,398.6 	"/>
	<polygon class="st2" points="588.7,374.2 599.2,380.3 599.2,392.5 588.7,398.6 578.1,392.5 578.1,380.3 	"/>
	<polygon class="st2" points="599.2,355.9 609.8,362 609.8,374.2 599.2,380.3 588.7,374.2 588.7,362 	"/>
	<polygon class="st2" points="588.7,337.6 599.2,343.7 599.2,355.9 588.7,362 578.1,355.9 578.1,343.7 	"/>
	<polygon class="st2" points="599.2,319.3 609.8,325.4 609.8,337.6 599.2,343.7 588.7,337.6 588.7,325.4 	"/>
	<polygon class="st2" points="588.7,300.9 599.2,307 599.2,319.3 588.7,325.4 578.1,319.3 578.1,307 	"/>
	<polygon class="st2" points="599.2,282.6 609.8,288.7 609.8,300.9 599.2,307 588.7,300.9 588.7,288.7 	"/>
	<polygon class="st2" points="588.7,264.3 599.2,270.4 599.2,282.6 588.7,288.7 578.1,282.6 578.1,270.4 	"/>
	<polygon class="st2" points="599.2,246 609.8,252.1 609.8,264.3 599.2,270.4 588.7,264.3 588.7,252.1 	"/>
	<polygon class="st2" points="588.7,227.7 599.2,233.8 599.2,246 588.7,252.1 578.1,246 578.1,233.8 	"/>
	<polygon class="st2" points="599.2,209.4 609.8,215.5 609.8,227.7 599.2,233.8 588.7,227.7 588.7,215.5 	"/>
	<polygon class="st2" points="588.7,191.1 599.2,197.2 599.2,209.4 588.7,215.5 578.1,209.4 578.1,197.2 	"/>
	<polygon class="st2" points="578.1,355.9 588.7,362 588.7,374.2 578.1,380.3 567.5,374.2 567.5,362 	"/>
	<polygon class="st2" points="578.1,319.3 588.7,325.4 588.7,337.6 578.1,343.7 567.5,337.6 567.5,325.4 	"/>
	<polygon class="st2" points="567.6,300.9 578.1,307 578.1,319.3 567.6,325.4 557,319.3 557,307 	"/>
	<polygon class="st2" points="578.1,282.6 588.7,288.7 588.7,300.9 578.1,307 567.5,300.9 567.5,288.7 	"/>
	<polygon class="st2" points="567.6,264.3 578.1,270.4 578.1,282.6 567.6,288.7 557,282.6 557,270.4 	"/>
	<polygon class="st2" points="578.1,246 588.7,252.1 588.7,264.3 578.1,270.4 567.5,264.3 567.5,252.1 	"/>
	<polygon class="st2" points="578.1,209.4 588.7,215.5 588.7,227.7 578.1,233.8 567.5,227.7 567.5,215.5 	"/>
	<polygon class="st2" points="567.6,191.1 578.1,197.2 578.1,209.4 567.6,215.5 557,209.4 557,197.2 	"/>
	<polygon class="st2" points="557,282.6 567.6,288.7 567.6,300.9 557,307 546.4,300.9 546.4,288.7 	"/>
	<polygon class="st2" points="546.4,264.3 557,270.4 557,282.6 546.4,288.7 535.9,282.6 535.9,270.4 	"/>
	<polygon class="st2" points="557,246 567.6,252.1 567.6,264.3 557,270.4 546.4,264.3 546.4,252.1 	"/>
	<polygon class="st2" points="546.4,227.7 557,233.8 557,246 546.4,252.1 535.9,246 535.9,233.8 	"/>
	<polygon class="st2" points="557,209.4 567.6,215.5 567.6,227.7 557,233.8 546.4,227.7 546.4,215.5 	"/>
</g>
<g id="ON">
	<polygon class="st3" points="588.7,410.8 599.2,416.9 599.2,429.1 588.7,435.2 578.1,429.1 578.1,416.9 	"/>
	<polygon class="st3" points="578.1,429.1 588.7,435.2 588.7,447.4 578.1,453.5 567.5,447.4 567.5,435.2 	"/>
	<polygon class="st3" points="567.6,410.8 578.1,416.9 578.1,429.1 567.6,435.2 557,429.1 557,416.9 	"/>
	<polygon class="st3" points="578.1,392.5 588.7,398.6 588.7,410.8 578.1,416.9 567.5,410.8 567.5,398.6 	"/>
	<polygon class="st3" points="567.6,374.2 578.1,380.3 578.1,392.5 567.6,398.6 557,392.5 557,380.3 	"/>
	<polygon class="st3" points="567.6,337.6 578.1,343.7 578.1,355.9 567.6,362 557,355.9 557,343.7 	"/>
	<polygon class="st3" points="546.4,410.8 557,416.9 557,429.1 546.4,435.2 535.9,429.1 535.9,416.9 	"/>
	<polygon class="st3" points="557,392.5 567.6,398.6 567.6,410.8 557,416.9 546.4,410.8 546.4,398.6 	"/>
	<polygon class="st3" points="546.4,374.2 557,380.3 557,392.5 546.4,398.6 535.9,392.5 535.9,380.3 	"/>
	<polygon class="st3" points="557,355.9 567.6,362 567.6,374.2 557,380.3 546.4,374.2 546.4,362 	"/>
	<polygon class="st3" points="546.4,337.6 557,343.7 557,355.9 546.4,362 535.9,355.9 535.9,343.7 	"/>
	<polygon class="st3" points="535.9,392.5 546.5,398.6 546.5,410.8 535.9,416.9 525.3,410.8 525.3,398.6 	"/>
	<polygon class="st3" points="525.3,374.2 535.9,380.3 535.9,392.5 525.3,398.6 514.8,392.5 514.8,380.3 	"/>
	<polygon class="st3" points="535.9,355.9 546.5,362 546.5,374.2 535.9,380.3 525.3,374.2 525.3,362 	"/>
	<polygon class="st3" points="525.3,337.6 535.9,343.7 535.9,355.9 525.3,362 514.8,355.9 514.8,343.7 	"/>
	<polygon class="st3" points="535.9,319.3 546.5,325.4 546.5,337.6 535.9,343.7 525.3,337.6 525.3,325.4 	"/>
	<polygon class="st3" points="525.3,300.9 535.9,307 535.9,319.3 525.3,325.4 514.8,319.3 514.8,307 	"/>
	<polygon class="st3" points="514.8,392.5 525.3,398.6 525.3,410.8 514.8,416.9 504.2,410.8 504.2,398.6 	"/>
	<polygon class="st3" points="504.2,374.2 514.8,380.3 514.8,392.5 504.2,398.6 493.7,392.5 493.7,380.3 	"/>
	<polygon class="st3" points="514.8,355.9 525.3,362 525.3,374.2 514.8,380.3 504.2,374.2 504.2,362 	"/>
	<polygon class="st3" points="504.2,337.6 514.8,343.7 514.8,355.9 504.2,362 493.7,355.9 493.7,343.7 	"/>
	<polygon class="st3" points="514.8,319.3 525.3,325.4 525.3,337.6 514.8,343.7 504.2,337.6 504.2,325.4 	"/>
	<polygon class="st3" points="504.2,300.9 514.8,307 514.8,319.3 504.2,325.4 493.7,319.3 493.7,307 	"/>
	<polygon class="st3" points="493.7,392.5 504.2,398.6 504.2,410.8 493.7,416.9 483.1,410.8 483.1,398.6 	"/>
	<polygon class="st3" points="483.1,374.2 493.7,380.3 493.7,392.5 483.1,398.6 472.5,392.5 472.5,380.3 	"/>
	<polygon class="st3" points="493.7,355.9 504.2,362 504.2,374.2 493.7,380.3 483.1,374.2 483.1,362 	"/>
	<polygon class="st3" points="483.1,337.6 493.7,343.7 493.7,355.9 483.1,362 472.5,355.9 472.5,343.7 	"/>
	<polygon class="st3" points="493.7,319.3 504.2,325.4 504.2,337.6 493.7,343.7 483.1,337.6 483.1,325.4 	"/>
	<polygon class="st3" points="483.1,300.9 493.7,307 493.7,319.3 483.1,325.4 472.5,319.3 472.5,307 	"/>
	<polygon class="st3" points="472.6,392.5 483.1,398.6 483.1,410.8 472.6,416.9 462,410.8 462,398.6 	"/>
	<polygon class="st3" points="462,374.2 472.6,380.3 472.6,392.5 462,398.6 451.4,392.5 451.4,380.3 	"/>
	<polygon class="st3" points="472.6,355.9 483.1,362 483.1,374.2 472.6,380.3 462,374.2 462,362 	"/>
	<polygon class="st3" points="462,337.6 472.6,343.7 472.6,355.9 462,362 451.4,355.9 451.4,343.7 	"/>
	<polygon class="st3" points="472.6,319.3 483.1,325.4 483.1,337.6 472.6,343.7 462,337.6 462,325.4 	"/>
	<polygon class="st3" points="451.4,392.5 462,398.6 462,410.8 451.4,416.9 440.9,410.8 440.9,398.6 	"/>
	<polygon class="st3" points="451.4,355.9 462,362 462,374.2 451.4,380.3 440.9,374.2 440.9,362 	"/>
</g>
<g id="MB">
	<polygon class="st4" points="462,300.9 472.6,307 472.6,319.3 462,325.4 451.4,319.3 451.4,307 	"/>
	<polygon class="st4" points="472.6,282.6 483.1,288.7 483.1,300.9 472.6,307 462,300.9 462,288.7 	"/>
	<polygon class="st4" points="462,264.3 472.6,270.4 472.6,282.6 462,288.7 451.4,282.6 451.4,270.4 	"/>
	<polygon class="st4" points="440.9,374.2 451.5,380.3 451.5,392.5 440.9,398.6 430.3,392.5 430.3,380.3 	"/>
	<polygon class="st4" points="440.9,337.6 451.5,343.7 451.5,355.9 440.9,362 430.3,355.9 430.3,343.7 	"/>
	<polygon class="st4" points="451.4,319.3 462,325.4 462,337.6 451.4,343.7 440.9,337.6 440.9,325.4 	"/>
	<polygon class="st4" points="440.9,300.9 451.5,307 451.5,319.3 440.9,325.4 430.3,319.3 430.3,307 	"/>
	<polygon class="st4" points="451.4,282.6 462,288.7 462,300.9 451.4,307 440.9,300.9 440.9,288.7 	"/>
	<polygon class="st4" points="440.9,264.3 451.5,270.4 451.5,282.6 440.9,288.7 430.3,282.6 430.3,270.4 	"/>
	<polygon class="st4" points="430.3,392.5 440.9,398.6 440.9,410.8 430.3,416.9 419.8,410.8 419.8,398.6 	"/>
	<polygon class="st4" points="419.8,374.2 430.3,380.3 430.3,392.5 419.8,398.6 409.2,392.5 409.2,380.3 	"/>
	<polygon class="st4" points="430.3,355.9 440.9,362 440.9,374.2 430.3,380.3 419.8,374.2 419.8,362 	"/>
	<polygon class="st4" points="419.8,337.6 430.3,343.7 430.3,355.9 419.8,362 409.2,355.9 409.2,343.7 	"/>
	<polygon class="st4" points="430.3,319.3 440.9,325.4 440.9,337.6 430.3,343.7 419.8,337.6 419.8,325.4 	"/>
	<polygon class="st4" points="419.8,300.9 430.3,307 430.3,319.3 419.8,325.4 409.2,319.3 409.2,307 	"/>
	<polygon class="st4" points="430.3,282.6 440.9,288.7 440.9,300.9 430.3,307 419.8,300.9 419.8,288.7 	"/>
	<polygon class="st4" points="419.8,264.3 430.3,270.4 430.3,282.6 419.8,288.7 409.2,282.6 409.2,270.4 	"/>
	<polygon class="st4" points="430.3,246 440.9,252.1 440.9,264.3 430.3,270.4 419.8,264.3 419.8,252.1 	"/>
	<polygon class="st4" points="409.2,392.5 419.8,398.6 419.8,410.8 409.2,416.9 398.6,410.8 398.6,398.6 	"/>
	<polygon class="st4" points="398.7,374.2 409.2,380.3 409.2,392.5 398.7,398.6 388.1,392.5 388.1,380.3 	"/>
	<polygon class="st4" points="409.2,355.9 419.8,362 419.8,374.2 409.2,380.3 398.6,374.2 398.6,362 	"/>
	<polygon class="st4" points="398.7,337.6 409.2,343.7 409.2,355.9 398.7,362 388.1,355.9 388.1,343.7 	"/>
	<polygon class="st4" points="409.2,319.3 419.8,325.4 419.8,337.6 409.2,343.7 398.6,337.6 398.6,325.4 	"/>
	<polygon class="st4" points="398.7,300.9 409.2,307 409.2,319.3 398.7,325.4 388.1,319.3 388.1,307 	"/>
	<polygon class="st4" points="409.2,282.6 419.8,288.7 419.8,300.9 409.2,307 398.6,300.9 398.6,288.7 	"/>
	<polygon class="st4" points="398.7,264.3 409.2,270.4 409.2,282.6 398.7,288.7 388.1,282.6 388.1,270.4 	"/>
	<polygon class="st4" points="409.2,246 419.8,252.1 419.8,264.3 409.2,270.4 398.6,264.3 398.6,252.1 	"/>
	<polygon class="st4" points="388.1,392.5 398.7,398.6 398.7,410.8 388.1,416.9 377.5,410.8 377.5,398.6 	"/>
</g>
<g id="SK">
	<polygon class="st5" points="377.5,374.2 388.1,380.3 388.1,392.5 377.5,398.6 367,392.5 367,380.3 	"/>
	<polygon class="st5" points="388.1,355.9 398.7,362 398.7,374.2 388.1,380.3 377.5,374.2 377.5,362 	"/>
	<polygon class="st5" points="377.5,337.6 388.1,343.7 388.1,355.9 377.5,362 367,355.9 367,343.7 	"/>
	<polygon class="st5" points="388.1,319.3 398.7,325.4 398.7,337.6 388.1,343.7 377.5,337.6 377.5,325.4 	"/>
	<polygon class="st5" points="377.5,300.9 388.1,307 388.1,319.3 377.5,325.4 367,319.3 367,307 	"/>
	<polygon class="st5" points="388.1,282.6 398.7,288.7 398.7,300.9 388.1,307 377.5,300.9 377.5,288.7 	"/>
	<polygon class="st5" points="377.5,264.3 388.1,270.4 388.1,282.6 377.5,288.7 367,282.6 367,270.4 	"/>
	<polygon class="st5" points="388.1,246 398.7,252.1 398.7,264.3 388.1,270.4 377.5,264.3 377.5,252.1 	"/>
	<polygon class="st5" points="367,392.5 377.6,398.6 377.6,410.8 367,416.9 356.4,410.8 356.4,398.6 	"/>
	<polygon class="st5" points="356.4,374.2 367,380.3 367,392.5 356.4,398.6 345.9,392.5 345.9,380.3 	"/>
	<polygon class="st5" points="367,355.9 377.6,362 377.6,374.2 367,380.3 356.4,374.2 356.4,362 	"/>
	<polygon class="st5" points="356.4,337.6 367,343.7 367,355.9 356.4,362 345.9,355.9 345.9,343.7 	"/>
	<polygon class="st5" points="367,319.3 377.6,325.4 377.6,337.6 367,343.7 356.4,337.6 356.4,325.4 	"/>
	<polygon class="st5" points="356.4,300.9 367,307 367,319.3 356.4,325.4 345.9,319.3 345.9,307 	"/>
	<polygon class="st5" points="367,282.6 377.6,288.7 377.6,300.9 367,307 356.4,300.9 356.4,288.7 	"/>
	<polygon class="st5" points="356.4,264.3 367,270.4 367,282.6 356.4,288.7 345.9,282.6 345.9,270.4 	"/>
	<polygon class="st5" points="367,246 377.6,252.1 377.6,264.3 367,270.4 356.4,264.3 356.4,252.1 	"/>
	<polygon class="st5" points="345.9,392.5 356.4,398.6 356.4,410.8 345.9,416.9 335.3,410.8 335.3,398.6 	"/>
	<polygon class="st5" points="335.3,374.2 345.9,380.3 345.9,392.5 335.3,398.6 324.7,392.5 324.7,380.3 	"/>
	<polygon class="st5" points="345.9,355.9 356.4,362 356.4,374.2 345.9,380.3 335.3,374.2 335.3,362 	"/>
	<polygon class="st5" points="335.3,337.6 345.9,343.7 345.9,355.9 335.3,362 324.7,355.9 324.7,343.7 	"/>
	<polygon class="st5" points="345.9,319.3 356.4,325.4 356.4,337.6 345.9,343.7 335.3,337.6 335.3,325.4 	"/>
	<polygon class="st5" points="335.3,300.9 345.9,307 345.9,319.3 335.3,325.4 324.7,319.3 324.7,307 	"/>
	<polygon class="st5" points="345.9,282.6 356.4,288.7 356.4,300.9 345.9,307 335.3,300.9 335.3,288.7 	"/>
	<polygon class="st5" points="335.3,264.3 345.9,270.4 345.9,282.6 335.3,288.7 324.7,282.6 324.7,270.4 	"/>
	<polygon class="st5" points="345.9,246 356.4,252.1 356.4,264.3 345.9,270.4 335.3,264.3 335.3,252.1 	"/>
	<polygon class="st5" points="324.8,392.5 335.3,398.6 335.3,410.8 324.8,416.9 314.2,410.8 314.2,398.6 	"/>
	<polygon class="st5" points="314.2,374.2 324.8,380.3 324.8,392.5 314.2,398.6 303.6,392.5 303.6,380.3 	"/>
	<polygon class="st5" points="324.8,355.9 335.3,362 335.3,374.2 324.8,380.3 314.2,374.2 314.2,362 	"/>
</g>
<g id="NU">
	<polygon class="st6" points="462,154.5 472.6,160.6 472.6,172.8 462,178.9 451.4,172.8 451.4,160.6 	"/>
	<polygon class="st6" points="430.3,209.4 440.9,215.5 440.9,227.7 430.3,233.8 419.8,227.7 419.8,215.5 	"/>
	<polygon class="st6" points="398.7,117.9 409.2,124 409.2,136.2 398.7,142.3 388.1,136.2 388.1,124 	"/>
	<polygon class="st6" points="345.9,63 356.4,69.1 356.4,81.3 345.9,87.4 335.3,81.3 335.3,69.1 	"/>
	<polygon class="st6" points="483.1,154.5 493.7,160.6 493.7,172.8 483.1,178.9 472.5,172.8 472.5,160.6 	"/>
	<polygon class="st6" points="472.6,136.2 483.1,142.3 483.1,154.5 472.6,160.6 462,154.5 462,142.3 	"/>
	<polygon class="st6" points="462,117.9 472.6,124 472.6,136.2 462,142.3 451.4,136.2 451.4,124 	"/>
	<polygon class="st6" points="440.9,227.7 451.5,233.8 451.5,246 440.9,252.1 430.3,246 430.3,233.8 	"/>
	<polygon class="st6" points="451.4,209.4 462,215.5 462,227.7 451.4,233.8 440.9,227.7 440.9,215.5 	"/>
	<polygon class="st6" points="440.9,154.5 451.5,160.6 451.5,172.8 440.9,178.9 430.3,172.8 430.3,160.6 	"/>
	<polygon class="st6" points="451.4,136.2 462,142.3 462,154.5 451.4,160.6 440.9,154.5 440.9,142.3 	"/>
	<polygon class="st6" points="440.9,117.9 451.5,124 451.5,136.2 440.9,142.3 430.3,136.2 430.3,124 	"/>
	<polygon class="st6" points="451.4,99.6 462,105.7 462,117.9 451.4,124 440.9,117.9 440.9,105.7 	"/>
	<polygon class="st6" points="419.8,227.7 430.3,233.8 430.3,246 419.8,252.1 409.2,246 409.2,233.8 	"/>
	<polygon class="st6" points="419.8,154.5 430.3,160.6 430.3,172.8 419.8,178.9 409.2,172.8 409.2,160.6 	"/>
	<polygon class="st6" points="430.3,136.2 440.9,142.3 440.9,154.5 430.3,160.6 419.8,154.5 419.8,142.3 	"/>
	<polygon class="st6" points="419.8,117.9 430.3,124 430.3,136.2 419.8,142.3 409.2,136.2 409.2,124 	"/>
	<polygon class="st6" points="430.3,99.6 440.9,105.7 440.9,117.9 430.3,124 419.8,117.9 419.8,105.7 	"/>
	<polygon class="st6" points="398.7,227.7 409.2,233.8 409.2,246 398.7,252.1 388.1,246 388.1,233.8 	"/>
	<polygon class="st6" points="409.2,209.4 419.8,215.5 419.8,227.7 409.2,233.8 398.6,227.7 398.6,215.5 	"/>
	<polygon class="st6" points="398.7,191.1 409.2,197.2 409.2,209.4 398.7,215.5 388.1,209.4 388.1,197.2 	"/>
	<polygon class="st6" points="398.7,154.5 409.2,160.6 409.2,172.8 398.7,178.9 388.1,172.8 388.1,160.6 	"/>
	<polygon class="st6" points="409.2,136.2 419.8,142.3 419.8,154.5 409.2,160.6 398.6,154.5 398.6,142.3 	"/>
	<polygon class="st6" points="409.2,99.6 419.8,105.7 419.8,117.9 409.2,124 398.6,117.9 398.6,105.7 	"/>
	<polygon class="st6" points="388.1,172.8 398.7,178.9 398.7,191.1 388.1,197.2 377.5,191.1 377.5,178.9 	"/>
	<polygon class="st6" points="377.5,154.5 388.1,160.6 388.1,172.8 377.5,178.9 367,172.8 367,160.6 	"/>
	<polygon class="st6" points="388.1,136.2 398.7,142.3 398.7,154.5 388.1,160.6 377.5,154.5 377.5,142.3 	"/>
	<polygon class="st6" points="377.5,117.9 388.1,124 388.1,136.2 377.5,142.3 367,136.2 367,124 	"/>
	<polygon class="st6" points="388.1,99.6 398.7,105.7 398.7,117.9 388.1,124 377.5,117.9 377.5,105.7 	"/>
	<polygon class="st6" points="377.5,44.7 388.1,50.8 388.1,63 377.5,69.1 367,63 367,50.8 	"/>
	<polygon class="st6" points="356.4,154.5 367,160.6 367,172.8 356.4,178.9 345.9,172.8 345.9,160.6 	"/>
	<polygon class="st6" points="367,136.2 377.6,142.3 377.6,154.5 367,160.6 356.4,154.5 356.4,142.3 	"/>
	<polygon class="st6" points="356.4,117.9 367,124 367,136.2 356.4,142.3 345.9,136.2 345.9,124 	"/>
	<polygon class="st6" points="367,99.6 377.6,105.7 377.6,117.9 367,124 356.4,117.9 356.4,105.7 	"/>
	<polygon class="st6" points="356.4,44.7 367,50.8 367,63 356.4,69.1 345.9,63 345.9,50.8 	"/>
	<polygon class="st6" points="345.9,136.2 356.4,142.3 356.4,154.5 345.9,160.6 335.3,154.5 335.3,142.3 	"/>
	<polygon class="st6" points="345.9,99.6 356.4,105.7 356.4,117.9 345.9,124 335.3,117.9 335.3,105.7 	"/>
	<polygon class="st6" points="335.3,81.3 345.9,87.4 345.9,99.6 335.3,105.7 324.7,99.6 324.7,87.4 	"/>
	<polygon class="st6" points="525.3,191.1 535.9,197.2 535.9,209.4 525.3,215.5 514.8,209.4 514.8,197.2 	"/>
	<polygon class="st6" points="504.2,191.1 514.8,197.2 514.8,209.4 504.2,215.5 493.7,209.4 493.7,197.2 	"/>
	<polygon class="st6" points="514.8,172.8 525.3,178.9 525.3,191.1 514.8,197.2 504.2,191.1 504.2,178.9 	"/>
	<polygon class="st6" points="504.2,154.5 514.8,160.6 514.8,172.8 504.2,178.9 493.7,172.8 493.7,160.6 	"/>
	<polygon class="st6" points="483.1,191.1 493.7,197.2 493.7,209.4 483.1,215.5 472.5,209.4 472.5,197.2 	"/>
	<polygon class="st6" points="493.7,172.8 504.2,178.9 504.2,191.1 493.7,197.2 483.1,191.1 483.1,178.9 	"/>
	<polygon class="st6" points="493.7,136.2 504.2,142.3 504.2,154.5 493.7,160.6 483.1,154.5 483.1,142.3 	"/>
	<polygon class="st6" points="483.1,117.9 493.7,124 493.7,136.2 483.1,142.3 472.5,136.2 472.5,124 	"/>
	<polygon class="st6" points="462,191.1 472.6,197.2 472.6,209.4 462,215.5 451.4,209.4 451.4,197.2 	"/>
	<polygon class="st6" points="472.6,172.8 483.1,178.9 483.1,191.1 472.6,197.2 462,191.1 462,178.9 	"/>
	<polygon class="st6" points="472.6,99.6 483.1,105.7 483.1,117.9 472.6,124 462,117.9 462,105.7 	"/>
	<polygon class="st6" points="462,81.3 472.6,87.4 472.6,99.6 462,105.7 451.4,99.6 451.4,87.4 	"/>
	<polygon class="st6" points="440.9,191.1 451.5,197.2 451.5,209.4 440.9,215.5 430.3,209.4 430.3,197.2 	"/>
	<polygon class="st6" points="451.4,172.8 462,178.9 462,191.1 451.4,197.2 440.9,191.1 440.9,178.9 	"/>
	<polygon class="st6" points="440.9,81.3 451.5,87.4 451.5,99.6 440.9,105.7 430.3,99.6 430.3,87.4 	"/>
	<polygon class="st6" points="419.8,191.1 430.3,197.2 430.3,209.4 419.8,215.5 409.2,209.4 409.2,197.2 	"/>
	<polygon class="st6" points="430.3,172.8 440.9,178.9 440.9,191.1 430.3,197.2 419.8,191.1 419.8,178.9 	"/>
	<polygon class="st6" points="419.8,81.3 430.3,87.4 430.3,99.6 419.8,105.7 409.2,99.6 409.2,87.4 	"/>
	<polygon class="st6" points="409.2,172.8 419.8,178.9 419.8,191.1 409.2,197.2 398.6,191.1 398.6,178.9 	"/>
	<polygon class="st6" points="398.7,81.3 409.2,87.4 409.2,99.6 398.7,105.7 388.1,99.6 388.1,87.4 	"/>
	<polygon class="st6" points="409.2,63 419.8,69.1 419.8,81.3 409.2,87.4 398.6,81.3 398.6,69.1 	"/>
	<polygon class="st6" points="377.5,81.3 388.1,87.4 388.1,99.6 377.5,105.7 367,99.6 367,87.4 	"/>
	<polygon class="st6" points="388.1,63 398.7,69.1 398.7,81.3 388.1,87.4 377.5,81.3 377.5,69.1 	"/>
	<polygon class="st6" points="356.4,81.3 367,87.4 367,99.6 356.4,105.7 345.9,99.6 345.9,87.4 	"/>
	<polygon class="st6" points="367,63 377.6,69.1 377.6,81.3 367,87.4 356.4,81.3 356.4,69.1 	"/>
	<polygon class="st6" points="335.3,44.7 345.9,50.8 345.9,63 335.3,69.1 324.7,63 324.7,50.8 	"/>
	<polygon class="st6" points="324.8,63 335.3,69.1 335.3,81.3 324.8,87.4 314.2,81.3 314.2,69.1 	"/>
</g>
<g id="AB">
	<polygon class="st7" points="314.2,337.6 324.8,343.7 324.8,355.9 314.2,362 303.6,355.9 303.6,343.7 	"/>
	<polygon class="st7" points="324.8,319.3 335.3,325.4 335.3,337.6 324.8,343.7 314.2,337.6 314.2,325.4 	"/>
	<polygon class="st7" points="314.2,300.9 324.8,307 324.8,319.3 314.2,325.4 303.6,319.3 303.6,307 	"/>
	<polygon class="st7" points="324.8,282.6 335.3,288.7 335.3,300.9 324.8,307 314.2,300.9 314.2,288.7 	"/>
	<polygon class="st7" points="314.2,264.3 324.8,270.4 324.8,282.6 314.2,288.7 303.6,282.6 303.6,270.4 	"/>
	<polygon class="st7" points="324.8,246 335.3,252.1 335.3,264.3 324.8,270.4 314.2,264.3 314.2,252.1 	"/>
	<polygon class="st7" points="314.2,227.7 324.8,233.8 324.8,246 314.2,252.1 303.6,246 303.6,233.8 	"/>
	<polygon class="st7" points="293.1,374.2 303.7,380.3 303.7,392.5 293.1,398.6 282.5,392.5 282.5,380.3 	"/>
	<polygon class="st7" points="303.6,355.9 314.2,362 314.2,374.2 303.6,380.3 293.1,374.2 293.1,362 	"/>
	<polygon class="st7" points="293.1,337.6 303.7,343.7 303.7,355.9 293.1,362 282.5,355.9 282.5,343.7 	"/>
	<polygon class="st7" points="303.6,319.3 314.2,325.4 314.2,337.6 303.6,343.7 293.1,337.6 293.1,325.4 	"/>
	<polygon class="st7" points="293.1,300.9 303.7,307 303.7,319.3 293.1,325.4 282.5,319.3 282.5,307 	"/>
	<polygon class="st7" points="303.6,282.6 314.2,288.7 314.2,300.9 303.6,307 293.1,300.9 293.1,288.7 	"/>
	<polygon class="st7" points="293.1,264.3 303.7,270.4 303.7,282.6 293.1,288.7 282.5,282.6 282.5,270.4 	"/>
	<polygon class="st7" points="303.6,246 314.2,252.1 314.2,264.3 303.6,270.4 293.1,264.3 293.1,252.1 	"/>
	<polygon class="st7" points="293.1,227.7 303.7,233.8 303.7,246 293.1,252.1 282.5,246 282.5,233.8 	"/>
	<polygon class="st7" points="272,374.2 282.5,380.3 282.5,392.5 272,398.6 261.4,392.5 261.4,380.3 	"/>
	<polygon class="st7" points="282.5,355.9 293.1,362 293.1,374.2 282.5,380.3 272,374.2 272,362 	"/>
	<polygon class="st7" points="272,337.6 282.5,343.7 282.5,355.9 272,362 261.4,355.9 261.4,343.7 	"/>
	<polygon class="st7" points="282.5,319.3 293.1,325.4 293.1,337.6 282.5,343.7 272,337.6 272,325.4 	"/>
	<polygon class="st7" points="272,300.9 282.5,307 282.5,319.3 272,325.4 261.4,319.3 261.4,307 	"/>
	<polygon class="st7" points="282.5,282.6 293.1,288.7 293.1,300.9 282.5,307 272,300.9 272,288.7 	"/>
	<polygon class="st7" points="272,264.3 282.5,270.4 282.5,282.6 272,288.7 261.4,282.6 261.4,270.4 	"/>
	<polygon class="st7" points="282.5,246 293.1,252.1 293.1,264.3 282.5,270.4 272,264.3 272,252.1 	"/>
	<polygon class="st7" points="261.4,319.3 272,325.4 272,337.6 261.4,343.7 250.9,337.6 250.9,325.4 	"/>
	<polygon class="st7" points="261.4,282.6 272,288.7 272,300.9 261.4,307 250.9,300.9 250.9,288.7 	"/>
</g>
<g id="NT">
	<polygon class="st8" points="377.5,227.7 388.1,233.8 388.1,246 377.5,252.1 367,246 367,233.8 	"/>
	<polygon class="st8" points="388.1,209.4 398.7,215.5 398.7,227.7 388.1,233.8 377.5,227.7 377.5,215.5 	"/>
	<polygon class="st8" points="377.5,191.1 388.1,197.2 388.1,209.4 377.5,215.5 367,209.4 367,197.2 	"/>
	<polygon class="st8" points="356.4,227.7 367,233.8 367,246 356.4,252.1 345.9,246 345.9,233.8 	"/>
	<polygon class="st8" points="367,209.4 377.6,215.5 377.6,227.7 367,233.8 356.4,227.7 356.4,215.5 	"/>
	<polygon class="st8" points="356.4,191.1 367,197.2 367,209.4 356.4,215.5 345.9,209.4 345.9,197.2 	"/>
	<polygon class="st8" points="367,172.8 377.6,178.9 377.6,191.1 367,197.2 356.4,191.1 356.4,178.9 	"/>
	<polygon class="st8" points="335.3,227.7 345.9,233.8 345.9,246 335.3,252.1 324.7,246 324.7,233.8 	"/>
	<polygon class="st8" points="345.9,209.4 356.4,215.5 356.4,227.7 345.9,233.8 335.3,227.7 335.3,215.5 	"/>
	<polygon class="st8" points="335.3,191.1 345.9,197.2 345.9,209.4 335.3,215.5 324.7,209.4 324.7,197.2 	"/>
	<polygon class="st8" points="345.9,172.8 356.4,178.9 356.4,191.1 345.9,197.2 335.3,191.1 335.3,178.9 	"/>
	<polygon class="st8" points="335.3,154.5 345.9,160.6 345.9,172.8 335.3,178.9 324.7,172.8 324.7,160.6 	"/>
	<polygon class="st8" points="335.3,117.9 345.9,124 345.9,136.2 335.3,142.3 324.7,136.2 324.7,124 	"/>
	<polygon class="st8" points="324.8,209.4 335.3,215.5 335.3,227.7 324.8,233.8 314.2,227.7 314.2,215.5 	"/>
	<polygon class="st8" points="314.2,191.1 324.8,197.2 324.8,209.4 314.2,215.5 303.6,209.4 303.6,197.2 	"/>
	<polygon class="st8" points="324.8,172.8 335.3,178.9 335.3,191.1 324.8,197.2 314.2,191.1 314.2,178.9 	"/>
	<polygon class="st8" points="314.2,154.5 324.8,160.6 324.8,172.8 314.2,178.9 303.6,172.8 303.6,160.6 	"/>
	<polygon class="st8" points="324.8,136.2 335.3,142.3 335.3,154.5 324.8,160.6 314.2,154.5 314.2,142.3 	"/>
	<polygon class="st8" points="314.2,117.9 324.8,124 324.8,136.2 314.2,142.3 303.6,136.2 303.6,124 	"/>
	<polygon class="st8" points="324.8,99.6 335.3,105.7 335.3,117.9 324.8,124 314.2,117.9 314.2,105.7 	"/>
	<polygon class="st8" points="314.2,81.3 324.8,87.4 324.8,99.6 314.2,105.7 303.6,99.6 303.6,87.4 	"/>
	<polygon class="st8" points="303.6,209.4 314.2,215.5 314.2,227.7 303.6,233.8 293.1,227.7 293.1,215.5 	"/>
	<polygon class="st8" points="293.1,191.1 303.7,197.2 303.7,209.4 293.1,215.5 282.5,209.4 282.5,197.2 	"/>
	<polygon class="st8" points="303.6,172.8 314.2,178.9 314.2,191.1 303.6,197.2 293.1,191.1 293.1,178.9 	"/>
	<polygon class="st8" points="293.1,154.5 303.7,160.6 303.7,172.8 293.1,178.9 282.5,172.8 282.5,160.6 	"/>
	<polygon class="st8" points="303.6,136.2 314.2,142.3 314.2,154.5 303.6,160.6 293.1,154.5 293.1,142.3 	"/>
	<polygon class="st8" points="293.1,117.9 303.7,124 303.7,136.2 293.1,142.3 282.5,136.2 282.5,124 	"/>
	<polygon class="st8" points="303.6,99.6 314.2,105.7 314.2,117.9 303.6,124 293.1,117.9 293.1,105.7 	"/>
	<polygon class="st8" points="293.1,81.3 303.7,87.4 303.7,99.6 293.1,105.7 282.5,99.6 282.5,87.4 	"/>
	<polygon class="st8" points="303.6,63 314.2,69.1 314.2,81.3 303.6,87.4 293.1,81.3 293.1,69.1 	"/>
	<polygon class="st8" points="282.5,209.4 293.1,215.5 293.1,227.7 282.5,233.8 272,227.7 272,215.5 	"/>
	<polygon class="st8" points="272,191.1 282.5,197.2 282.5,209.4 272,215.5 261.4,209.4 261.4,197.2 	"/>
	<polygon class="st8" points="282.5,172.8 293.1,178.9 293.1,191.1 282.5,197.2 272,191.1 272,178.9 	"/>
	<polygon class="st8" points="272,154.5 282.5,160.6 282.5,172.8 272,178.9 261.4,172.8 261.4,160.6 	"/>
	<polygon class="st8" points="282.5,136.2 293.1,142.3 293.1,154.5 282.5,160.6 272,154.5 272,142.3 	"/>
	<polygon class="st8" points="272,117.9 282.5,124 282.5,136.2 272,142.3 261.4,136.2 261.4,124 	"/>
	<polygon class="st8" points="282.5,99.6 293.1,105.7 293.1,117.9 282.5,124 272,117.9 272,105.7 	"/>
	<polygon class="st8" points="272,81.3 282.5,87.4 282.5,99.6 272,105.7 261.4,99.6 261.4,87.4 	"/>
	<polygon class="st8" points="282.5,63 293.1,69.1 293.1,81.3 282.5,87.4 272,81.3 272,69.1 	"/>
	<polygon class="st8" points="261.4,172.8 272,178.9 272,191.1 261.4,197.2 250.9,191.1 250.9,178.9 	"/>
	<polygon class="st8" points="261.4,136.2 272,142.3 272,154.5 261.4,160.6 250.9,154.5 250.9,142.3 	"/>
	<polygon class="st8" points="261.4,99.6 272,105.7 272,117.9 261.4,124 250.9,117.9 250.9,105.7 	"/>
</g>
<g id="BC">
	<polygon class="st9" points="272,227.7 282.5,233.8 282.5,246 272,252.1 261.4,246 261.4,233.8 	"/>
	<polygon class="st9" points="261.4,355.9 272,362 272,374.2 261.4,380.3 250.9,374.2 250.9,362 	"/>
	<polygon class="st9" points="250.9,337.6 261.4,343.7 261.4,355.9 250.9,362 240.3,355.9 240.3,343.7 	"/>
	<polygon class="st9" points="250.9,300.9 261.4,307 261.4,319.3 250.9,325.4 240.3,319.3 240.3,307 	"/>
	<polygon class="st9" points="250.9,264.3 261.4,270.4 261.4,282.6 250.9,288.7 240.3,282.6 240.3,270.4 	"/>
	<polygon class="st9" points="261.4,246 272,252.1 272,264.3 261.4,270.4 250.9,264.3 250.9,252.1 	"/>
	<polygon class="st9" points="250.9,227.7 261.4,233.8 261.4,246 250.9,252.1 240.3,246 240.3,233.8 	"/>
	<polygon class="st9" points="261.4,209.4 272,215.5 272,227.7 261.4,233.8 250.9,227.7 250.9,215.5 	"/>
	<polygon class="st9" points="240.2,355.9 250.7,362 250.7,374.2 240.2,380.3 229.6,374.2 229.6,362 	"/>
	<polygon class="st9" points="229.6,337.6 240.2,343.7 240.2,355.9 229.6,362 219,355.9 219,343.7 	"/>
	<polygon class="st9" points="240.2,319.3 250.7,325.4 250.7,337.6 240.2,343.7 229.6,337.6 229.6,325.4 	"/>
	<polygon class="st9" points="229.6,300.9 240.2,307 240.2,319.3 229.6,325.4 219,319.3 219,307 	"/>
	<polygon class="st9" points="240.2,282.6 250.7,288.7 250.7,300.9 240.2,307 229.6,300.9 229.6,288.7 	"/>
	<polygon class="st9" points="229.6,264.3 240.2,270.4 240.2,282.6 229.6,288.7 219,282.6 219,270.4 	"/>
	<polygon class="st9" points="240.2,246 250.7,252.1 250.7,264.3 240.2,270.4 229.6,264.3 229.6,252.1 	"/>
	<polygon class="st9" points="229.6,227.7 240.2,233.8 240.2,246 229.6,252.1 219,246 219,233.8 	"/>
	<polygon class="st9" points="240.2,209.4 250.7,215.5 250.7,227.7 240.2,233.8 229.6,227.7 229.6,215.5 	"/>
	<polygon class="st9" points="219.1,355.9 229.6,362 229.6,374.2 219.1,380.3 208.5,374.2 208.5,362 	"/>
	<polygon class="st9" points="208.5,337.6 219.1,343.7 219.1,355.9 208.5,362 197.9,355.9 197.9,343.7 	"/>
	<polygon class="st9" points="219.1,319.3 229.6,325.4 229.6,337.6 219.1,343.7 208.5,337.6 208.5,325.4 	"/>
	<polygon class="st9" points="208.5,300.9 219.1,307 219.1,319.3 208.5,325.4 197.9,319.3 197.9,307 	"/>
	<polygon class="st9" points="219.1,282.6 229.6,288.7 229.6,300.9 219.1,307 208.5,300.9 208.5,288.7 	"/>
	<polygon class="st9" points="208.5,264.3 219.1,270.4 219.1,282.6 208.5,288.7 197.9,282.6 197.9,270.4 	"/>
	<polygon class="st9" points="219.1,246 229.6,252.1 229.6,264.3 219.1,270.4 208.5,264.3 208.5,252.1 	"/>
	<polygon class="st9" points="208.5,227.7 219.1,233.8 219.1,246 208.5,252.1 197.9,246 197.9,233.8 	"/>
	<polygon class="st9" points="219.1,209.4 229.6,215.5 229.6,227.7 219.1,233.8 208.5,227.7 208.5,215.5 	"/>
	<polygon class="st9" points="208.5,191.1 219.1,197.2 219.1,209.4 208.5,215.5 197.9,209.4 197.9,197.2 	"/>
	<polygon class="st9" points="197.9,355.9 208.5,362 208.5,374.2 197.9,380.3 187.4,374.2 187.4,362 	"/>
	<polygon class="st9" points="187.4,337.6 198,343.7 198,355.9 187.4,362 176.8,355.9 176.8,343.7 	"/>
	<polygon class="st9" points="197.9,319.3 208.5,325.4 208.5,337.6 197.9,343.7 187.4,337.6 187.4,325.4 	"/>
	<polygon class="st9" points="187.4,300.9 198,307 198,319.3 187.4,325.4 176.8,319.3 176.8,307 	"/>
	<polygon class="st9" points="197.9,282.6 208.5,288.7 208.5,300.9 197.9,307 187.4,300.9 187.4,288.7 	"/>
	<polygon class="st9" points="187.4,264.3 198,270.4 198,282.6 187.4,288.7 176.8,282.6 176.8,270.4 	"/>
	<polygon class="st9" points="197.9,246 208.5,252.1 208.5,264.3 197.9,270.4 187.4,264.3 187.4,252.1 	"/>
	<polygon class="st9" points="187.4,227.7 198,233.8 198,246 187.4,252.1 176.8,246 176.8,233.8 	"/>
	<polygon class="st9" points="197.9,209.4 208.5,215.5 208.5,227.7 197.9,233.8 187.4,227.7 187.4,215.5 	"/>
	<polygon class="st9" points="187.4,191.1 198,197.2 198,209.4 187.4,215.5 176.8,209.4 176.8,197.2 	"/>
	<polygon class="st9" points="197.9,172.8 208.5,178.9 208.5,191.1 197.9,197.2 187.4,191.1 187.4,178.9 	"/>
	<polygon class="st9" points="176.8,319.3 187.4,325.4 187.4,337.6 176.8,343.7 166.3,337.6 166.3,325.4 	"/>
	<polygon class="st9" points="166.3,300.9 176.8,307 176.8,319.3 166.3,325.4 155.7,319.3 155.7,307 	"/>
	<polygon class="st9" points="176.8,282.6 187.4,288.7 187.4,300.9 176.8,307 166.3,300.9 166.3,288.7 	"/>
	<polygon class="st9" points="176.8,246 187.4,252.1 187.4,264.3 176.8,270.4 166.3,264.3 166.3,252.1 	"/>
	<polygon class="st9" points="176.8,209.4 187.4,215.5 187.4,227.7 176.8,233.8 166.3,227.7 166.3,215.5 	"/>
	<polygon class="st9" points="166.3,191.1 176.8,197.2 176.8,209.4 166.3,215.5 155.7,209.4 155.7,197.2 	"/>
	<polygon class="st9" points="176.8,172.8 187.4,178.9 187.4,191.1 176.8,197.2 166.3,191.1 166.3,178.9 	"/>
</g>
<g id="YT">
	<polygon class="st10" points="208.5,117.9 219.1,124 219.1,136.2 208.5,142.3 197.9,136.2 197.9,124 	"/>
	<polygon class="st10" points="250.9,191.1 261.4,197.2 261.4,209.4 250.9,215.5 240.3,209.4 240.3,197.2 	"/>
	<polygon class="st10" points="250.9,154.5 261.4,160.6 261.4,172.8 250.9,178.9 240.3,172.8 240.3,160.6 	"/>
	<polygon class="st10" points="250.9,117.9 261.4,124 261.4,136.2 250.9,142.3 240.3,136.2 240.3,124 	"/>
	<polygon class="st10" points="250.9,81.3 261.4,87.4 261.4,99.6 250.9,105.7 240.3,99.6 240.3,87.4 	"/>
	<polygon class="st10" points="229.6,191.1 240.2,197.2 240.2,209.4 229.6,215.5 219,209.4 219,197.2 	"/>
	<polygon class="st10" points="240.2,172.8 250.7,178.9 250.7,191.1 240.2,197.2 229.6,191.1 229.6,178.9 	"/>
	<polygon class="st10" points="229.6,154.5 240.2,160.6 240.2,172.8 229.6,178.9 219,172.8 219,160.6 	"/>
	<polygon class="st10" points="240.2,136.2 250.7,142.3 250.7,154.5 240.2,160.6 229.6,154.5 229.6,142.3 	"/>
	<polygon class="st10" points="229.6,117.9 240.2,124 240.2,136.2 229.6,142.3 219,136.2 219,124 	"/>
	<polygon class="st10" points="240.2,99.6 250.7,105.7 250.7,117.9 240.2,124 229.6,117.9 229.6,105.7 	"/>
	<polygon class="st10" points="229.6,81.3 240.2,87.4 240.2,99.6 229.6,105.7 219,99.6 219,87.4 	"/>
	<polygon class="st10" points="240.2,63 250.7,69.1 250.7,81.3 240.2,87.4 229.6,81.3 229.6,69.1 	"/>
	<polygon class="st10" points="219.1,172.8 229.6,178.9 229.6,191.1 219.1,197.2 208.5,191.1 208.5,178.9 	"/>
	<polygon class="st10" points="208.5,154.5 219.1,160.6 219.1,172.8 208.5,178.9 197.9,172.8 197.9,160.6 	"/>
	<polygon class="st10" points="219.1,136.2 229.6,142.3 229.6,154.5 219.1,160.6 208.5,154.5 208.5,142.3 	"/>
	<polygon class="st10" points="219.1,99.6 229.6,105.7 229.6,117.9 219.1,124 208.5,117.9 208.5,105.7 	"/>
	<polygon class="st10" points="208.5,81.3 219.1,87.4 219.1,99.6 208.5,105.7 197.9,99.6 197.9,87.4 	"/>
	<polygon class="st10" points="219.1,63 229.6,69.1 229.6,81.3 219.1,87.4 208.5,81.3 208.5,69.1 	"/>
	<polygon class="st10" points="187.4,154.5 198,160.6 198,172.8 187.4,178.9 176.8,172.8 176.8,160.6 	"/>
	<polygon class="st10" points="197.9,136.2 208.5,142.3 208.5,154.5 197.9,160.6 187.4,154.5 187.4,142.3 	"/>
	<polygon class="st10" points="187.4,117.9 198,124 198,136.2 187.4,142.3 176.8,136.2 176.8,124 	"/>
	<polygon class="st10" points="197.9,99.6 208.5,105.7 208.5,117.9 197.9,124 187.4,117.9 187.4,105.7 	"/>
	<polygon class="st10" points="176.8,136.2 187.4,142.3 187.4,154.5 176.8,160.6 166.3,154.5 166.3,142.3 	"/>
</g>
</svg>
